<?xml version="1.0" encoding="UTF-8"?><svg id="b" xmlns="http://www.w3.org/2000/svg" viewBox="0 0 72 72"><defs><style>.c{stroke:#578ac0;}.c,.d{fill:none;stroke-linecap:round;stroke-linejoin:round;stroke-width:3px;}.e{fill:#f3ea59;stroke-width:0px;}.d{stroke:#f1f2f2;}</style></defs><rect class="e" width="72" height="72"/><path class="c" d="M13.51,7.34s-.94,7.33,0,12.7,4.28,17.58,7.1,22.91,4.97,5.99,4.97,5.99l5.99-34.92"/><path class="c" d="M53.11,43.41s5.72-6.44,6.96-11.59-.83-7.18-3.48-6.32-13.88,8.09-16.97,21.96.13,17.15,7.15,17.1,15.28-12.99,15.28-12.99"/><path class="d" d="M11.35,5.9s-.94,7.33,0,12.7,4.28,17.58,7.1,22.91,4.97,5.99,4.97,5.99l5.99-34.92"/><path class="d" d="M51.07,42.25s5.72-6.44,6.96-11.59-.83-7.18-3.48-6.32-13.88,8.09-16.97,21.96.13,17.15,7.15,17.1,15.28-12.99,15.28-12.99"/></svg>